<?xml version="1.0" encoding="UTF-8"?><svg version="1.1" width="960px" height="118px" viewBox="0 0 960.0 118.0" xmlns="http://www.w3.org/2000/svg" xmlns:xlink="http://www.w3.org/1999/xlink"><defs><clipPath id="i0"><path d="M47.43,0 C54.991,0.204 64.208,0.408 69.172,7.553 C71.76,11.287 72.074,15.326 72.074,17.923 C72.074,19.892 71.871,24.034 69.172,27.649 C66.168,31.586 62.239,32.826 59.956,33.453 C64.513,34.692 75.8,37.493 75.8,52.09 C75.8,56.333 74.866,60.796 72.49,64.411 C66.796,73.017 57.368,73.017 50.222,73.119 L0,73.119 L0,0 L47.43,0 Z M48.1813779,41.5325627 L18.119,41.532 L18.119,60.2700404 L45.8576453,60.2700769 C45.9076853,60.2700675 45.9581797,60.2700398 46.0091104,60.2699774 L46.3197886,60.2690596 C50.5807726,60.2475872 57.47,59.787814 57.47,50.324 C57.47,41.88368 51.0796256,41.5460672 48.1813779,41.5325627 Z M46.0306305,12.7464569 L18.119,12.746 L18.119,28.786 L44.324,28.786 C46.497,28.786 48.568,28.684 50.222,28.073 C54.3094286,26.4160612 54.5596793,22.020925 54.5750008,20.8014345 L54.576,20.605 C54.576,13.0761471 49.0113607,12.758622 46.0306305,12.7464569 Z"></path></clipPath><clipPath id="i1"><path d="M55.093,0 L90.413,73.119 L69.901,73.119 L63.69,59.337 L26.206,59.337 L19.985,73.119 L0,73.119 L35.311,0 L55.093,0 Z M45.053,16.667 C44.74,17.601 44.536,18.432 44.323,19.264 C43.908,20.198 43.602,21.131 43.187,22.065 L32.103,46.404 L57.792,46.404 L46.912,22.472 C46.394,21.538 45.979,20.503 45.673,19.57 C45.359,18.637 45.156,17.702 45.053,16.667 Z"></path></clipPath><clipPath id="i2"><path d="M22.574,0 L41.939,27.547 C43.391,29.414 43.501,29.821 44.018,31.28 C44.638,29.821 44.842,29.414 45.775,28.073 L65.76,0 L88.029,0 L53.124,45.674 L53.124,73.119 L34.794,73.119 L34.794,45.674 L0,0 L22.574,0 Z"></path></clipPath><clipPath id="i3"><path d="M81.919,14.2557352 C84.914,17.8707352 89.786,25.9497352 89.786,38.1707352 C89.786,61.4737352 74.663,77.8347352 45.148,77.8347352 C15.64,77.8347352 0,61.7797352 0,39.0017352 C0,13.8317352 18.017,1.10273524 42.041,0.0667352406 C56.443,-0.561264759 72.805,3.17273524 81.919,14.2557352 Z M44.112,13.2207352 C31.892,13.6277352 18.848,21.7067352 18.848,39.4097352 C18.848,48.3197352 22.157,52.9877352 23.507,54.7357352 C25.272,57.2297352 30.653,64.7837352 44.842,64.7837352 C61.925,64.7837352 71.039,53.1907352 71.039,39.1037352 C71.039,22.7417352 58.717,12.6937352 44.112,13.2207352 Z"></path></clipPath><clipPath id="i4"><path d="M18.221,0 L54.058,40.7 C58.403,45.775 59.235,46.811 63.792,52.514 C63.172,45.572 63.172,43.705 63.062,37.391 L63.062,0 L80.57,0 L80.57,73.119 L62.443,73.119 L26.198,31.892 C22.37,27.445 20.809,25.578 16.778,20.401 C17.295,26.002 17.295,27.241 17.398,32.826 L17.398,73.119 L0,73.119 L0,0 L18.221,0 Z"></path></clipPath><clipPath id="i5"><path d="M68.137,0 L68.137,13.154 L18.33,13.154 L18.33,29.617 L66.482,29.617 L66.482,42.568 L18.33,42.568 L18.33,60.066 L70.208,60.066 L70.208,73.119 L0,73.119 L0,0 L68.137,0 Z"></path></clipPath><clipPath id="i6"><path d="M960,0 L960,117.145 L0,117.145 L0,0 L960,0 Z"></path></clipPath><clipPath id="i7"><path d="M72.601,0 L72.601,13.357 L45.47,13.357 L45.47,73.119 L27.139,73.119 L27.139,13.357 L0,13.357 L0,0 L72.601,0 Z"></path></clipPath><clipPath id="i8"><path d="M45.213,0 L45.213,43.976 L0,43.976 L0,0 L45.213,0 Z"></path></clipPath><clipPath id="i9"><path d="M27.984,0 L27.984,27.979 L0,27.979 L0,0 L27.984,0 Z"></path></clipPath><clipPath id="i10"><path d="M62.504,0 L62.504,10.685 L10.688,10.685 L10.688,59.21 C10.688,85.967 32.455,107.735 59.208,107.735 C85.966,107.735 107.734,85.967 107.734,59.21 L107.734,55.951 L118.422,55.951 L118.422,59.21 C118.422,91.915 91.911,118.418 59.208,118.418 C26.511,118.418 0,91.915 0,59.21 L0,0 L62.504,0 Z"></path></clipPath></defs><g transform="translate(191.401 9.396)"><g clip-path="url(#i0)"><polygon points="0,0 75.8,0 75.8,73.119 0,73.119 0,0" stroke="none" fill="#1E1F20"></polygon></g></g><g transform="translate(300.909 9.396)"><g clip-path="url(#i1)"><polygon points="0,0 90.413,0 90.413,73.119 0,73.119 0,0" stroke="none" fill="#1E1F20"></polygon></g></g><g transform="translate(411.766 9.396)"><g clip-path="url(#i2)"><polygon points="0,0 88.029,0 88.029,73.119 0,73.119 0,0" stroke="none" fill="#1E1F20"></polygon></g></g><g transform="translate(527.29 7.055264759369592)"><g clip-path="url(#i3)"><polygon points="0,0 89.786,0 89.786,77.8347352 0,77.8347352 0,0" stroke="none" fill="#1E1F20"></polygon></g></g><g transform="translate(656.893 9.396)"><g clip-path="url(#i4)"><polygon points="0,0 80.57,0 80.57,73.119 0,73.119 0,0" stroke="none" fill="#1E1F20"></polygon></g></g><g transform="translate(783.1700000000001 9.396)"><g clip-path="url(#i5)"><polygon points="0,0 70.208,0 70.208,73.119 0,73.119 0,0" stroke="none" fill="#1E1F20"></polygon></g></g><g clip-path="url(#i6)"><g transform="translate(887.3989999999999 9.396)"><g clip-path="url(#i7)"><polygon points="0,0 72.601,0 72.601,73.119 0,73.119 0,0" stroke="none" fill="#1E1F20"></polygon></g></g><g transform="translate(73.20400000000001 0.0)"><g clip-path="url(#i8)"><polygon points="0,0 45.213,0 45.213,43.976 0,43.976 0,0" stroke="none" fill="#149D88"></polygon></g></g><g transform="translate(45.22 43.976)"><g clip-path="url(#i9)"><polygon points="0,0 27.984,0 27.984,27.979 0,27.979 0,0" stroke="none" fill="#149D88"></polygon></g></g><g transform="translate(0.0 -1.2729999999999961)"><g clip-path="url(#i10)"><polygon points="0,1.273 118.422,1.273 118.422,118.418 0,118.418 0,1.273" stroke="none" fill="#149D88"></polygon></g></g></g></svg>