<svg width="133" height="36" viewBox="0 0 133 36" fill="none" xmlns="http://www.w3.org/2000/svg">
<path d="M14.6924 9.19756C14.6924 9.19756 12.0182 5.59971 15.5999 2.73096C15.5999 2.73096 17.5612 5.66453 14.6924 9.19756Z" fill="#E7C539"/>
<path d="M23.6235 31.6899C23.9498 31.3617 24.2635 31.0211 24.5637 30.6688C26.4488 28.5003 27.7831 25.9092 28.4535 23.1152C29.1499 19.9872 28.8585 17.1024 27.5964 14.8009C26.962 13.6487 26.0983 12.6387 25.0585 11.8332C24.0188 11.0276 22.825 10.4436 21.5508 10.1172C20.8181 9.90945 20.0598 9.80576 19.2982 9.80916C17.8303 9.81773 16.3882 10.1906 15.1003 10.8951C13.8114 10.1902 12.3672 9.81716 10.8982 9.8097C10.1365 9.80629 9.37823 9.90998 8.64548 10.1177C7.37182 10.4445 6.17857 11.0286 5.13929 11.8342C4.10001 12.6397 3.23672 13.6496 2.60262 14.8015C1.33834 17.119 1.04905 19.9877 1.74548 23.1158C2.4245 25.9259 3.77529 28.5293 5.68191 30.7026C5.77941 30.8161 5.98995 31.0593 6.24923 31.3347C6.44626 31.6656 6.70926 31.9524 7.02187 32.1773C7.33447 32.4022 7.69001 32.5604 8.06637 32.6421C8.44272 32.7237 8.83185 32.7271 9.20956 32.6519C9.58726 32.5768 9.94547 32.4247 10.2619 32.2052C10.5783 31.9857 10.8462 31.7035 11.0489 31.376C11.2516 31.0486 11.3848 30.6829 11.4401 30.3018C11.4955 29.9207 11.4719 29.5323 11.3707 29.1607C11.2695 28.7891 11.093 28.4423 10.8521 28.1418L10.7873 28.077C10.6982 27.9717 10.6006 27.8741 10.4953 27.7851C8.88051 26.1669 7.72783 24.1464 7.15673 21.9329C6.71905 19.9556 6.52459 16.4874 10.1567 15.4663C10.3999 15.402 10.6507 15.3693 10.9024 15.3688C11.7985 15.4188 12.6505 15.7734 13.3174 16.3738L15.1003 17.8813L16.8832 16.3738C17.5501 15.7734 18.4021 15.4188 19.2982 15.3688C19.5499 15.3683 19.8007 15.4009 20.0439 15.4663C23.6744 16.4874 23.4799 19.9556 23.0439 21.9329C22.515 24.0473 21.4422 25.9865 19.9319 27.5579C19.6137 27.7631 19.3426 28.0336 19.138 28.3518L19.0892 28.4006L19.1053 28.4167C18.7627 28.9553 18.6139 29.5947 18.6836 30.2292C18.7533 30.8638 19.0373 31.4556 19.4887 31.907C19.9401 32.3584 20.5319 32.6424 21.1665 32.7121C21.8011 32.7818 22.4404 32.6331 22.9791 32.2904L23.0117 32.3231C23.0926 32.2583 23.1574 32.1774 23.2389 32.1126C23.3755 31.9797 23.5041 31.8388 23.6235 31.6899Z" fill="#27884D"/>
<path d="M14.6443 9.18581C16.328 9.27153 17.9952 8.82313 19.4095 7.90545C20.7197 6.84896 21.6569 5.40048 22.0838 3.77242C22.0838 3.77242 19.3773 3.56188 17.3352 5.05278C16.0168 6.10499 15.0731 7.55446 14.6443 9.18581Z" fill="#1B703D"/>
<path opacity="0.3" d="M18.469 8.27136C18.588 8.2735 18.7074 8.26815 18.8258 8.25529C17.5527 8.89941 16.1339 9.20091 14.7089 9.13011C14.8935 8.43148 15.1715 7.76096 15.5355 7.13672C16.3367 7.86908 17.3836 8.27401 18.469 8.27136Z" fill="#709352"/>
<path d="M27.545 14.8063C26.9106 13.6541 26.0469 12.6441 25.0072 11.8386C23.9674 11.033 22.7736 10.449 21.4995 10.1226C20.7667 9.91482 20.0084 9.81113 19.2468 9.81453C17.779 9.82311 16.3368 10.196 15.049 10.9004V17.8535L16.8318 16.346C17.4987 15.7455 18.3508 15.3909 19.2468 15.341C19.4986 15.3404 19.7493 15.3731 19.9925 15.4385C23.6231 16.4595 23.4286 19.9277 22.9925 21.9051C22.4637 24.0194 21.3908 25.9586 19.8806 27.5301C19.5623 27.7352 19.2913 28.0058 19.0866 28.324L19.0379 28.3727L19.054 28.3888C18.7136 28.9272 18.5665 29.5652 18.6369 30.1982C18.7072 30.8312 18.9908 31.4215 19.441 31.8719C19.8913 32.3224 20.4813 32.6063 21.1143 32.677C21.7473 32.7477 22.3854 32.601 22.924 32.261L22.9566 32.2936C23.0375 32.2288 23.1023 32.1479 23.1838 32.0831C23.3306 31.9604 23.4661 31.8249 23.5888 31.6781C23.9151 31.3499 24.2287 31.0093 24.529 30.657C26.414 28.4886 27.7484 25.8975 28.4188 23.1035C29.1007 19.9931 28.8093 17.1077 27.545 14.8063Z" fill="#1B703D"/>
<path d="M42.9847 21.356L40.5333 16.9808V22.6931C40.5269 22.9276 40.431 23.1506 40.2651 23.3164C40.0993 23.4823 39.8763 23.5782 39.6418 23.5846C39.4089 23.5736 39.1884 23.4762 39.0234 23.3114C38.8585 23.1465 38.761 22.9261 38.7499 22.6931V13.6937C38.7562 13.4593 38.8522 13.2362 39.018 13.0704C39.1838 12.9046 39.4069 12.8086 39.6413 12.8022C39.9831 12.806 40.2949 12.9989 40.4492 13.3037L43.7652 19.2383L47.0808 13.3037C47.1697 13.1224 47.3174 12.9765 47.4997 12.8896C47.682 12.8028 47.8884 12.7801 48.0852 12.8252C48.282 12.8704 48.4578 12.9808 48.5841 13.1384C48.7103 13.296 48.7796 13.4917 48.7806 13.6937V22.6937C48.7806 22.9302 48.6866 23.157 48.5194 23.3242C48.3522 23.4914 48.1254 23.5854 47.8889 23.5854C47.6524 23.5854 47.4256 23.4914 47.2584 23.3242C47.0911 23.157 46.9972 22.9302 46.9972 22.6937V16.9808L44.5452 21.3549C44.4653 21.4908 44.3512 21.6034 44.2144 21.6817C44.0775 21.7599 43.9226 21.8011 43.765 21.8011C43.6073 21.8011 43.4524 21.7599 43.3156 21.6817C43.1787 21.6034 43.0647 21.4908 42.9847 21.3549V21.356ZM51.7061 18.2349C51.5722 18.3431 51.4051 18.4021 51.2326 18.4021C51.1373 18.4027 51.0428 18.3844 50.9546 18.3482C50.8665 18.3121 50.7864 18.2587 50.719 18.1914C50.6516 18.124 50.5983 18.0439 50.5621 17.9557C50.5259 17.8675 50.5076 17.7731 50.5083 17.6778C50.5099 17.4839 50.5784 17.2969 50.7033 17.1485C51.0348 16.8091 51.4349 16.5441 51.8767 16.3712C52.3186 16.1983 52.7922 16.1214 53.2661 16.1456C55.2167 16.1456 56.3588 17.0928 56.3588 18.7647V22.7767C56.3588 22.9984 56.2707 23.2111 56.1139 23.3678C55.9572 23.5246 55.7445 23.6127 55.5228 23.6127C55.3011 23.6127 55.0885 23.5246 54.9317 23.3678C54.7749 23.2111 54.6868 22.9984 54.6868 22.7767C54.269 23.4453 53.5726 23.696 52.6249 23.696C51.0922 23.696 50.0893 22.7489 50.0893 21.3276C50.0893 19.8812 51.2593 19.1264 52.6249 19.1264H54.6868V18.8478C54.6868 18.1514 54.1576 17.6778 53.2661 17.6778C52.693 17.6508 52.1325 17.851 51.7061 18.2349ZM54.7152 20.8262V20.3805H52.8756C52.1792 20.3805 51.817 20.7147 51.817 21.2719C51.817 21.8569 52.2349 22.219 53.1263 22.219C53.3234 22.2387 53.5224 22.2176 53.711 22.1571C53.8997 22.0967 54.0739 21.9981 54.2228 21.8676C54.3718 21.737 54.4924 21.5773 54.5771 21.3983C54.6618 21.2192 54.7088 21.0241 54.7152 20.8262ZM64.1872 18.8499V22.7505C64.1886 22.8593 64.1678 22.9673 64.1259 23.0678C64.0841 23.1683 64.0221 23.2592 63.9438 23.3349C63.8655 23.4106 63.7726 23.4694 63.6708 23.5078C63.5689 23.5463 63.4602 23.5634 63.3515 23.5583C63.2422 23.5658 63.1325 23.5503 63.0296 23.5127C62.9267 23.4751 62.8328 23.4164 62.754 23.3402C62.6752 23.2641 62.6133 23.1722 62.5723 23.0706C62.5312 22.969 62.512 22.86 62.5158 22.7505V19.1547C62.5158 18.2633 62.1536 17.6499 61.1508 17.6499C59.9808 17.6499 59.5902 18.3464 59.5902 19.2662V22.7483C59.5847 22.9664 59.4942 23.1736 59.338 23.3259C59.1819 23.4782 58.9724 23.5634 58.7542 23.5634C58.5361 23.5634 58.3266 23.4782 58.1705 23.3259C58.0143 23.1736 57.9238 22.9664 57.9183 22.7483V17.0649C57.9183 16.8432 58.0063 16.6306 58.1631 16.4738C58.3199 16.317 58.5325 16.2289 58.7542 16.2289C58.976 16.2289 59.1886 16.317 59.3454 16.4738C59.5022 16.6306 59.5902 16.8432 59.5902 17.0649C59.8206 16.7537 60.1244 16.5043 60.4746 16.3391C60.8247 16.1738 61.2103 16.0978 61.597 16.1178C63.6868 16.1178 64.1872 17.4828 64.1872 18.8499ZM66.0268 16.3406H70.0388C70.1807 16.3404 70.3198 16.3804 70.4399 16.4561C70.56 16.5318 70.6561 16.64 70.7172 16.7681C70.7782 16.8962 70.8017 17.0391 70.7847 17.18C70.7678 17.3209 70.7113 17.4541 70.6217 17.5642L67.334 21.9946H70.1733C70.2715 21.9892 70.3699 22.004 70.4623 22.0379C70.5547 22.0718 70.6392 22.1242 70.7107 22.1919C70.7821 22.2596 70.8391 22.3411 70.878 22.4315C70.9169 22.522 70.9369 22.6194 70.9369 22.7178C70.9369 22.8162 70.9169 22.9136 70.878 23.004C70.8391 23.0944 70.7821 23.176 70.7107 23.2437C70.6392 23.3114 70.5547 23.3638 70.4623 23.3977C70.3699 23.4316 70.2715 23.4464 70.1733 23.441H65.8597C65.6694 23.4376 65.4878 23.3608 65.3528 23.2266C65.2178 23.0924 65.1399 22.9113 65.1354 22.721C65.1391 22.5493 65.1977 22.3834 65.3026 22.2474L68.6738 17.7335H66.0268C65.8421 17.7335 65.665 17.6601 65.5344 17.5295C65.4038 17.3989 65.3304 17.2218 65.3304 17.0371C65.3304 16.8524 65.4038 16.6752 65.5344 16.5446C65.665 16.414 65.8421 16.3406 66.0268 16.3406ZM73.2992 18.2349C73.1652 18.3431 72.9981 18.4021 72.8256 18.4021C72.7303 18.4027 72.6358 18.3844 72.5477 18.3482C72.4595 18.3121 72.3794 18.2587 72.312 18.1914C72.2446 18.124 72.1913 18.0439 72.1551 17.9557C72.119 17.8675 72.1007 17.7731 72.1013 17.6778C72.1029 17.4839 72.1715 17.2969 72.2963 17.1485C72.6279 16.809 73.028 16.544 73.47 16.3711C73.912 16.1982 74.3857 16.1213 74.8597 16.1456C76.8102 16.1456 77.9524 17.0928 77.9524 18.7647V22.7767C77.9524 22.9984 77.8643 23.2111 77.7075 23.3678C77.5507 23.5246 77.3381 23.6127 77.1164 23.6127C76.8947 23.6127 76.682 23.5246 76.5253 23.3678C76.3685 23.2111 76.2804 22.9984 76.2804 22.7767C75.8626 23.4453 75.1661 23.696 74.2184 23.696C72.6858 23.696 71.6829 22.7489 71.6829 21.3276C71.6829 19.8812 72.8529 19.1264 74.2184 19.1264H76.2804V18.8478C76.2804 18.1514 75.7511 17.6778 74.8597 17.6778C74.5756 17.6618 74.2911 17.7029 74.0231 17.7986C73.7551 17.8942 73.5089 18.0426 73.2992 18.2349ZM76.2804 20.8262V20.3805H74.4413C73.7449 20.3805 73.3827 20.7147 73.3827 21.2719C73.3827 21.8569 73.8006 22.219 74.692 22.219C74.8895 22.241 75.0895 22.2216 75.279 22.1621C75.4686 22.1025 75.6437 22.0041 75.7932 21.8731C75.9426 21.7421 76.0631 21.5814 76.147 21.4012C76.2309 21.2211 76.2763 21.0249 76.2804 20.8262ZM85.7524 18.8499V22.7505C85.7538 22.8593 85.733 22.9673 85.6911 23.0678C85.6493 23.1683 85.5873 23.2592 85.509 23.3349C85.4307 23.4106 85.3378 23.4694 85.2359 23.5078C85.1341 23.5463 85.0254 23.5634 84.9166 23.5583C84.8073 23.5658 84.6977 23.5503 84.5948 23.5127C84.4918 23.4751 84.3979 23.4164 84.3192 23.3402C84.2404 23.2641 84.1785 23.1722 84.1374 23.0706C84.0964 22.969 84.0772 22.86 84.0809 22.7505V19.1547C84.0809 18.2633 83.7188 17.6499 82.7159 17.6499C81.5459 17.6499 81.1554 18.3464 81.1554 19.2662V22.7483C81.1499 22.9664 81.0594 23.1736 80.9032 23.3259C80.747 23.4782 80.5375 23.5634 80.3194 23.5634C80.1013 23.5634 79.8918 23.4782 79.7356 23.3259C79.5795 23.1736 79.489 22.9664 79.4834 22.7483V17.0649C79.4834 16.8432 79.5715 16.6306 79.7283 16.4738C79.8851 16.317 80.0977 16.2289 80.3194 16.2289C80.5411 16.2289 80.7538 16.317 80.9105 16.4738C81.0673 16.6306 81.1554 16.8432 81.1554 17.0649C81.3857 16.7538 81.6894 16.5045 82.0395 16.3392C82.3895 16.1739 82.7751 16.0979 83.1616 16.1178C85.252 16.1178 85.7524 17.4828 85.7524 18.8499ZM88.484 18.2349C88.35 18.3431 88.1829 18.4021 88.0104 18.4021C87.9151 18.4027 87.8206 18.3844 87.7325 18.3482C87.6443 18.3121 87.5642 18.2587 87.4968 18.1914C87.4294 18.124 87.3761 18.0439 87.3399 17.9557C87.3038 17.8675 87.2855 17.7731 87.2861 17.6778C87.2877 17.4839 87.3563 17.2969 87.4811 17.1485C87.8128 16.809 88.2129 16.544 88.6548 16.3711C89.0968 16.1982 89.5705 16.1213 90.0445 16.1456C91.995 16.1456 93.1372 17.0928 93.1372 18.7647V22.7767C93.1372 22.9984 93.0491 23.2111 92.8923 23.3678C92.7355 23.5246 92.5229 23.6127 92.3012 23.6127C92.0795 23.6127 91.8669 23.5246 91.7101 23.3678C91.5533 23.2111 91.4652 22.9984 91.4652 22.7767C91.0474 23.4453 90.3509 23.696 89.4033 23.696C87.8706 23.696 86.8677 22.7489 86.8677 21.3276C86.8677 19.8812 88.0377 19.1264 89.4033 19.1264H91.4652V18.8478C91.4652 18.1514 90.9359 17.6778 90.0445 17.6778C89.7604 17.6618 89.4759 17.7029 89.2079 17.7986C88.9399 17.8942 88.6937 18.0426 88.484 18.2349ZM91.4652 20.8262V20.3805H89.6261C88.9297 20.3805 88.5675 20.7147 88.5675 21.2719C88.5675 21.8569 88.9854 22.219 89.8768 22.219C90.0743 22.241 90.2743 22.2216 90.4639 22.1621C90.6535 22.1025 90.8286 22.0041 90.978 21.8731C91.1275 21.7421 91.248 21.5814 91.3319 21.4012C91.4157 21.2211 91.4612 21.0249 91.4652 20.8262Z" fill="#27884D"/>
<path d="M100.019 23.2517L97.426 17.3727C97.39 17.265 97.3719 17.1521 97.3724 17.0385C97.3736 16.8098 97.4649 16.5908 97.6266 16.4291C97.7883 16.2674 98.0073 16.176 98.236 16.1749C98.4115 16.1739 98.5831 16.2268 98.7276 16.3264C98.8721 16.426 98.9825 16.5676 99.0439 16.732L100.827 21.246L102.611 16.732C102.672 16.5676 102.782 16.426 102.927 16.3264C103.071 16.2268 103.243 16.1739 103.419 16.1749C103.647 16.176 103.866 16.2674 104.028 16.4291C104.19 16.5908 104.281 16.8098 104.282 17.0385C104.283 17.1521 104.265 17.265 104.229 17.3727L101.635 23.2517C101.57 23.4115 101.458 23.5477 101.314 23.6423C101.169 23.7368 101 23.7852 100.827 23.781C100.654 23.791 100.481 23.745 100.336 23.6497C100.191 23.5544 100.08 23.4148 100.019 23.2517ZM108.49 16.0635C111.222 16.0635 111.749 18.1811 111.749 19.2954C111.749 19.9083 111.749 20.6047 110.747 20.6047H106.735C106.735 21.7747 107.57 22.3045 108.629 22.3045C109.207 22.3049 109.77 22.13 110.246 21.8031C110.399 21.6902 110.585 21.6314 110.775 21.636C110.974 21.636 111.165 21.715 111.305 21.8556C111.446 21.9963 111.525 22.187 111.525 22.386C111.514 22.6185 111.415 22.8381 111.246 22.9988C110.512 23.6064 109.58 23.9235 108.627 23.8902C106.37 23.8902 104.977 22.6645 104.977 19.9618C104.979 17.4563 106.288 16.0635 108.49 16.0635ZM106.79 19.1283H109.994C110.014 18.9219 109.989 18.7137 109.922 18.5176C109.854 18.3216 109.745 18.1423 109.603 17.9918C109.46 17.8413 109.287 17.7231 109.095 17.6451C108.903 17.5672 108.696 17.5313 108.489 17.5399C108.272 17.5281 108.055 17.5603 107.851 17.6345C107.647 17.7088 107.46 17.8235 107.301 17.9719C107.142 18.1203 107.015 18.2992 106.928 18.4979C106.84 18.6966 106.793 18.911 106.79 19.1283H106.79ZM114.703 17.122C114.875 16.8077 115.129 16.5458 115.438 16.3644C115.747 16.1829 116.099 16.0885 116.457 16.0913C116.679 16.0913 116.892 16.1794 117.048 16.3362C117.205 16.4929 117.293 16.7056 117.293 16.9273C117.293 17.149 117.205 17.3616 117.048 17.5184C116.892 17.6752 116.679 17.7633 116.457 17.7633C116.218 17.7475 115.978 17.7839 115.754 17.8701C115.53 17.9564 115.327 18.0903 115.16 18.2626C114.993 18.4349 114.866 18.6415 114.787 18.8681C114.707 19.0946 114.678 19.3357 114.702 19.5745V22.9458C114.702 23.1749 114.611 23.3946 114.449 23.5566C114.287 23.7186 114.067 23.8096 113.838 23.8096C113.609 23.8096 113.389 23.7186 113.227 23.5566C113.065 23.3946 112.974 23.1749 112.974 22.9458V17.0385C112.974 16.8093 113.065 16.5896 113.227 16.4276C113.389 16.2656 113.609 16.1746 113.838 16.1746C114.067 16.1746 114.287 16.2656 114.449 16.4276C114.611 16.5896 114.702 16.8093 114.702 17.0385L114.703 17.122ZM122.894 16.7047V12.9708C122.894 12.7417 122.985 12.5219 123.147 12.3599C123.309 12.1979 123.529 12.1069 123.758 12.1069C123.987 12.1069 124.207 12.1979 124.369 12.3599C124.531 12.5219 124.622 12.7417 124.622 12.9708V20.6052C124.622 22.7481 123.229 23.8651 121.251 23.8651C119.05 23.8651 117.769 22.6115 117.769 19.9645C117.769 17.3176 119.022 16.064 121.056 16.064C121.726 16.052 122.378 16.2792 122.894 16.7047ZM122.894 18.3767C122.698 18.1328 122.453 17.9326 122.174 17.7887C121.896 17.6448 121.591 17.5604 121.278 17.541C120.164 17.541 119.55 18.3488 119.55 19.9651C119.55 21.5535 120.163 22.3613 121.278 22.3613C121.504 22.3685 121.73 22.3268 121.938 22.2392C122.147 22.1515 122.335 22.0199 122.488 21.8534C122.641 21.6868 122.757 21.4891 122.827 21.2739C122.897 21.0586 122.92 20.8307 122.894 20.6058V18.3767ZM129.358 16.0635C132.09 16.0635 132.618 18.1811 132.618 19.2954C132.618 19.9083 132.618 20.6047 131.615 20.6047H127.631C127.631 21.7747 128.466 22.3045 129.525 22.3045C130.102 22.3045 130.667 22.1299 131.142 21.8031C131.295 21.6902 131.481 21.6314 131.671 21.636C131.77 21.636 131.867 21.6554 131.958 21.693C132.049 21.7307 132.132 21.786 132.201 21.8556C132.271 21.9253 132.326 22.0079 132.364 22.0989C132.402 22.1899 132.421 22.2875 132.421 22.386C132.41 22.6185 132.311 22.8381 132.142 22.9988C131.408 23.6064 130.476 23.9235 129.523 23.8902C127.266 23.8902 125.874 22.6645 125.874 19.9618C125.876 17.4563 127.157 16.0635 129.358 16.0635ZM127.658 19.1283H130.862C130.882 18.9219 130.857 18.7137 130.79 18.5176C130.722 18.3216 130.614 18.1423 130.471 17.9918C130.328 17.8413 130.155 17.7231 129.963 17.6451C129.771 17.5672 129.564 17.5313 129.357 17.5399C129.141 17.5304 128.925 17.5642 128.722 17.6393C128.519 17.7144 128.333 17.8293 128.174 17.9772C128.016 18.1251 127.889 18.3032 127.801 18.5008C127.712 18.6985 127.664 18.9118 127.659 19.1283H127.658Z" fill="#27884D"/>
</svg>
